REM DIRINDEX 1\2,1\3,1\4,1\5,1\6
REM DIRNAME folder01,folder02,folder03,folder04,folder05,folder06
TITLE ""
FILE "CD2-66.mp3" MP3
  TRACK 01 AUDIO
    TITLE "6:cjc091_2841"
    INDEX 01 00:00:00
  TRACK 02 AUDIO
    TITLE "0:"
    INDEX 01 00:02:04
  TRACK 03 AUDIO
    TITLE "2:cjc091_2842"
    INDEX 01 00:03:19
  TRACK 04 AUDIO
    TITLE "0:"
    INDEX 01 00:04:25
  TRACK 05 AUDIO
    TITLE "3:cjc091_2843"
    INDEX 01 00:04:38
  TRACK 06 AUDIO
    TITLE "0:"
    INDEX 01 00:05:40
  TRACK 07 AUDIO
    TITLE "4:cjc091_2844"
    INDEX 01 00:05:57
  TRACK 08 AUDIO
    TITLE "4:cjc091_2845"
    INDEX 01 00:07:37
  TRACK 09 AUDIO
    TITLE "0:"
    INDEX 01 00:09:18
  TRACK 10 AUDIO
    TITLE "2:cjc091_2846"
    INDEX 01 00:10:33
  TRACK 11 AUDIO
    TITLE "0:"
    INDEX 01 00:12:26
  TRACK 12 AUDIO
    TITLE "3:cjc091_2847"
    INDEX 01 00:12:38
  TRACK 13 AUDIO
    TITLE "0:"
    INDEX 01 00:14:37
  TRACK 14 AUDIO
    TITLE "4:cjc091_2848"
    INDEX 01 00:14:60
  TRACK 15 AUDIO
    TITLE "4:cjc091_2849"
    INDEX 01 00:17:04
  TRACK 16 AUDIO
    TITLE "4:cjc091_2850"
    INDEX 01 00:19:20
  TRACK 17 AUDIO
    TITLE "0:"
    INDEX 01 00:21:49
  TRACK 18 AUDIO
    TITLE "2:cjc091_2851"
    INDEX 01 00:22:58
  TRACK 19 AUDIO
    TITLE "0:"
    INDEX 01 00:24:12
  TRACK 20 AUDIO
    TITLE "3:cjc091_2852"
    INDEX 01 00:24:27
  TRACK 21 AUDIO
    TITLE "0:"
    INDEX 01 00:25:46
  TRACK 22 AUDIO
    TITLE "4:cjc091_2853"
    INDEX 01 00:25:70
  TRACK 23 AUDIO
    TITLE "4:cjc091_2854"
    INDEX 01 00:28:25
  TRACK 24 AUDIO
    TITLE "4:cjc091_2855"
    INDEX 01 00:29:72
  TRACK 25 AUDIO
    TITLE "0:"
    INDEX 01 00:31:33
  TRACK 26 AUDIO
    TITLE "2:cjc091_2856"
    INDEX 01 00:32:45
  TRACK 27 AUDIO
    TITLE "0:"
    INDEX 01 00:34:16
  TRACK 28 AUDIO
    TITLE "3:cjc091_2857"
    INDEX 01 00:34:38
  TRACK 29 AUDIO
    TITLE "0:"
    INDEX 01 00:36:07
  TRACK 30 AUDIO
    TITLE "4:cjc091_2858"
    INDEX 01 00:36:31
  TRACK 31 AUDIO
    TITLE "4:cjc091_2859"
    INDEX 01 00:39:27
  TRACK 32 AUDIO
    TITLE "0:"
    INDEX 01 00:44:52
  TRACK 33 AUDIO
    TITLE "2:cjc091_2860"
    INDEX 01 00:45:63
  TRACK 34 AUDIO
    TITLE "0:"
    INDEX 01 00:47:42
  TRACK 35 AUDIO
    TITLE "3:cjc091_2861"
    INDEX 01 00:47:66
  TRACK 36 AUDIO
    TITLE "0:"
    INDEX 01 00:49:49
  TRACK 37 AUDIO
    TITLE "4:cjc091_2862"
    INDEX 01 00:49:69
  TRACK 38 AUDIO
    TITLE "4:cjc091_2863"
    INDEX 01 00:53:66
  TRACK 39 AUDIO
    TITLE "0:"
    INDEX 01 00:57:07
  TRACK 40 AUDIO
    TITLE "2:cjc091_2864"
    INDEX 01 00:58:18
  TRACK 41 AUDIO
    TITLE "0:"
    INDEX 01 00:59:43
  TRACK 42 AUDIO
    TITLE "3:cjc091_2865"
    INDEX 01 00:59:63
  TRACK 43 AUDIO
    TITLE "0:"
    INDEX 01 01:01:52
  TRACK 44 AUDIO
    TITLE "4:cjc091_2866"
    INDEX 01 01:02:05
  TRACK 45 AUDIO
    TITLE "4:cjc091_2867"
    INDEX 01 01:04:21
  TRACK 46 AUDIO
    TITLE "4:cjc091_2868"
    INDEX 01 01:05:46
  TRACK 47 AUDIO
    TITLE "0:"
    INDEX 01 01:08:31
  TRACK 48 AUDIO
    TITLE "2:cjc091_2869"
    INDEX 01 01:09:38
  TRACK 49 AUDIO
    TITLE "0:"
    INDEX 01 01:10:67
  TRACK 50 AUDIO
    TITLE "3:cjc091_2870"
    INDEX 01 01:11:09
  TRACK 51 AUDIO
    TITLE "0:"
    INDEX 01 01:12:26
  TRACK 52 AUDIO
    TITLE "4:cjc091_2871"
    INDEX 01 01:12:44
  TRACK 53 AUDIO
    TITLE "4:cjc091_2872"
    INDEX 01 01:13:59
  TRACK 54 AUDIO
    TITLE "4:cjc091_2873"
    INDEX 01 01:16:11
  TRACK 55 AUDIO
    TITLE "4:cjc091_2874"
    INDEX 01 01:17:65
  TRACK 56 AUDIO
    TITLE "0:"
    INDEX 01 01:21:55
  TRACK 57 AUDIO
    TITLE "2:cjc091_2875"
    INDEX 01 01:22:74
  TRACK 58 AUDIO
    TITLE "0:"
    INDEX 01 01:24:51
  TRACK 59 AUDIO
    TITLE "3:cjc091_2876"
    INDEX 01 01:24:71
  TRACK 60 AUDIO
    TITLE "0:"
    INDEX 01 01:26:48
  TRACK 61 AUDIO
    TITLE "4:cjc091_2877"
    INDEX 01 01:26:64
  TRACK 62 AUDIO
    TITLE "4:cjc091_2878"
    INDEX 01 01:29:25
  TRACK 63 AUDIO
    TITLE "4:cjc091_2879"
    INDEX 01 01:30:15
  TRACK 64 AUDIO
    TITLE "0:"
    INDEX 01 01:35:10
  TRACK 65 AUDIO
    TITLE "2:cjc091_2880"
    INDEX 01 01:36:21
  TRACK 66 AUDIO
    TITLE "0:"
    INDEX 01 01:37:58
  TRACK 67 AUDIO
    TITLE "3:cjc091_2881"
    INDEX 01 01:37:73
  TRACK 68 AUDIO
    TITLE "0:"
    INDEX 01 01:39:27
  TRACK 69 AUDIO
    TITLE "4:cjc091_2882"
    INDEX 01 01:39:47
  TRACK 70 AUDIO
    TITLE "4:cjc091_2883"
    INDEX 01 01:42:57
  TRACK 71 AUDIO
    TITLE "0:"
    INDEX 01 01:45:22
  TRACK 72 AUDIO
    TITLE "2:cjc091_2884"
    INDEX 01 01:46:21
  TRACK 73 AUDIO
    TITLE "0:"
    INDEX 01 01:47:50
  TRACK 74 AUDIO
    TITLE "3:cjc091_2885"
    INDEX 01 01:47:60
  TRACK 75 AUDIO
    TITLE "0:"
    INDEX 01 01:48:73
  TRACK 76 AUDIO
    TITLE "4:cjc091_2886"
    INDEX 01 01:49:18
  TRACK 77 AUDIO
    TITLE "4:cjc091_2887"
    INDEX 01 01:51:64
  TRACK 78 AUDIO
    TITLE "4:cjc091_2888"
    INDEX 01 01:52:59
  TRACK 79 AUDIO
    TITLE "0:"
    INDEX 01 01:57:17
